<?xml version="1.0" encoding="UTF-8" standalone="no"?>
<svg
   xmlns:dc="http://purl.org/dc/elements/1.1/"
   xmlns:cc="http://creativecommons.org/ns#"
   xmlns:rdf="http://www.w3.org/1999/02/22-rdf-syntax-ns#"
   xmlns:svg="http://www.w3.org/2000/svg"
   xmlns="http://www.w3.org/2000/svg"
   xmlns:sodipodi="http://sodipodi.sourceforge.net/DTD/sodipodi-0.dtd"
   xmlns:inkscape="http://www.inkscape.org/namespaces/inkscape"
   version="1.1"
   id="svg2"
   inkscape:version="0.48.4 r9939"
   width="100%"
   height="100%"
   sodipodi:docname="jigsaw-piece.svg">
  <metadata
     id="metadata11">
    <rdf:RDF>
      <cc:Work
         rdf:about="">
        <dc:format>image/svg+xml</dc:format>
        <dc:type
           rdf:resource="http://purl.org/dc/dcmitype/StillImage" />
        <dc:title />
      </cc:Work>
    </rdf:RDF>
  </metadata>
  <defs
     id="defs9" />
  <sodipodi:namedview
     pagecolor="#ffffff"
     bordercolor="#666666"
     borderopacity="1"
     objecttolerance="10"
     gridtolerance="10"
     guidetolerance="10"
     inkscape:pageopacity="0"
     inkscape:pageshadow="2"
     inkscape:window-width="1793"
     inkscape:window-height="1144"
     id="namedview7"
     showgrid="false"
     showguides="true"
     inkscape:guide-bbox="true"
     inkscape:zoom="28.704946"
     inkscape:cx="5.5346703"
     inkscape:cy="1047.5024"
     inkscape:window-x="863"
     inkscape:window-y="337"
     inkscape:window-maximized="0"
     inkscape:current-layer="g4" />
  <g
     id="g4"
     style="fill:none;stroke:#000000;stroke-opacity:1;stroke-linecap:butt;stroke-linejoin:round;stroke-width:0.7;stroke-miterlimit:4;stroke-dasharray:none">
    <path
       d="m 7.6235571,6.2385756 c 0.24,0.11 0.578349,0.382674 0.858349,0.382674 0.28,0 0.539,-0.101 0.719,-0.281 0.18,-0.18 0.281,-0.439 0.281,-0.719 0,-0.28 -0.101,-0.539 -0.281,-0.719 -0.18,-0.18 -0.439,-0.281 -0.719,-0.281 -0.28,0 -0.479,0.181 -0.719,0.281 -0.06,0.03 0.04802,-2.689139 0.075417,-2.4134382 -0.9376889,-0.5010496 -1.4937508,0.2950357 -3.0365326,0.031444 0.11,-0.24 0.3826744,-0.5783488 0.3826744,-0.8583488 0,-0.28 -0.101,-0.539 -0.281,-0.71899997 -0.18,-0.18 -0.439,-0.281 -0.719,-0.281 -0.28,0 -0.539,0.101 -0.719,0.281 -0.18,0.17999997 -0.281,0.43899997 -0.281,0.71899997 0,0.28 0.181,0.479 0.281,0.719 0.03,0.06 -2.68913896,0.056489 -2.62846647,0.2656254 0.18067247,0.089137 0.0726525,2.3553923 0.13265248,2.3253923 0.23999999,-0.1 0.43899999,-0.281 0.71899999,-0.281 0.28,0 0.539,0.101 0.719,0.281 0.18,0.18 0.281,0.439 0.281,0.719 0,0.28 -0.101,0.539 -0.281,0.719 -0.18,0.18 -0.439,0.281 -0.719,0.281 -0.28,0 -0.618349,-0.272674 -0.85834899,-0.382674 -0.263586,1.542782 0.0118837,1.9697673 0.0815581,2.6316741 C 1.2376741,8.5076687 3.9568131,8.7480177 3.9268131,8.8080177 c -0.1,0.24 -0.281,0.439 -0.281,0.719 0,0.28 0.101,0.5390003 0.281,0.7190003 0.18,0.18 0.439,0.281 0.719,0.281 0.28,0 0.539,-0.101 0.719,-0.281 0.18,-0.18 0.281,-0.4390003 0.281,-0.7190003 0,-0.28 -0.272675,-0.6183488 -0.382675,-0.8583488 1.542782,-0.2635916 2.098844,0.5324938 2.650046,0.25479 0.242867,-0.5860393 -0.553224,-1.1421013 -0.289627,-2.6848833 z"
       id="puzzle-piece-9"
       style="fill:none;stroke:#000000;stroke-width:0.69999999;stroke-linecap:butt;stroke-linejoin:round;stroke-miterlimit:4;stroke-opacity:1;stroke-dasharray:none"
       inkscape:connector-curvature="0"
       sodipodi:nodetypes="cssssscccssssscccssssscccsssssccc" />
  </g>
</svg>
